<svg width="603" height="408" viewBox="0 0 603 408" fill="none" xmlns="http://www.w3.org/2000/svg">
<path d="M218.3 215.382C134.94 269.825 56.6364 334.337 0.200684 407.5H207.329C206.92 341.147 211.347 275.624 218.3 215.382Z" fill="#F8A506"/>
<path d="M603 130.619V32.5001C537.062 53.0869 434.244 93.3624 327.927 150.512C325.406 208.989 332.519 264.718 344.861 315.682C405.499 242.303 490.099 169.44 603 130.619Z" fill="#F8A506"/>
<path d="M356.773 0H257.5C243.82 51.5684 228.397 127.907 218.3 215.382C211.347 275.624 206.92 341.147 207.329 407.5H279.863H373.963C362.883 379.219 352.793 348.435 344.861 315.682C332.519 264.718 325.406 208.989 327.927 150.512C330.025 101.856 338.795 51.2981 356.773 0Z" fill="#FDCF00"/>
</svg>
