<svg width="27" height="32" viewBox="0 0 27 32" fill="none" xmlns="http://www.w3.org/2000/svg">
<path fill-rule="evenodd" clip-rule="evenodd" d="M14.8633 24.1836L11.1719 19.3594H16.2109L18.3594 22.1133L21.9531 26.4297L25.9766 31.5078H20.4688L18.2031 28.6953L14.8633 24.1836Z" fill="#E7A23B"/>
<path d="M14.8633 24.1836C14.3555 24.3008 13.8086 24.3594 13.2422 24.3594C8.84766 24.3398 5.97656 21.0586 5.97656 15.0234C5.97656 8.96875 8.84766 5.70703 13.2422 5.6875C17.5977 5.70703 20.4883 8.96875 20.4688 15.0234C20.4883 18.1484 19.707 20.5508 18.3594 22.1133L21.9531 26.4297C24.7266 23.9492 26.4453 20.082 26.4453 15.0234C26.4453 5.78516 20.7227 0.492188 13.2422 0.492188C5.70312 0.492188 0 5.78516 0 15.0234C0 24.2227 5.70312 29.5547 13.2422 29.5547C15 29.5547 16.6797 29.2617 18.2031 28.6953L14.8633 24.1836Z" fill="#FDCF00"/>
</svg>
