<svg width="28" height="26" viewBox="0 0 28 26" fill="none" xmlns="http://www.w3.org/2000/svg">
<path d="M11.0529 18.9722L11.1504 19.1602L14.3543 17.4986L14.2568 17.3105C12.9792 14.732 13.1322 13.221 14.4236 11.0997C15.7843 8.84301 16.124 6.5392 14.8156 4.01646C12.9627 0.443877 8.96219 -0.583218 4.87885 1.53459C1.14102 3.47321 -0.744749 7.21515 1.20194 11.276L4.59425 9.51655C3.53284 7.1242 4.64551 5.23476 6.34167 4.35505C8.22629 3.3776 10.376 3.83351 11.3918 5.79216C12.2452 7.43743 11.8414 9.11826 10.9366 10.6016C9.52996 12.9617 8.97081 14.8424 11.0529 18.9722ZM13.0046 23.9649C13.6228 25.1953 15.1556 25.653 16.3888 25.0333C17.5899 24.3905 18.0831 22.882 17.4649 21.6516C16.8153 20.4376 15.2901 19.9561 14.0808 20.5833C12.8558 21.2186 12.355 22.7509 13.0046 23.9649Z" fill="#FDCF00"/>
<path d="M22.1832 16.3828L22.1864 16.501L24.2008 16.4458L24.1976 16.3276C24.1832 14.721 24.6279 13.9989 25.7931 13.2473C27.0261 12.4445 27.7576 11.3695 27.7141 9.78335C27.6526 7.53713 25.8924 6.0473 23.325 6.11762C20.9749 6.18199 19.1165 7.60332 19.1063 10.1177L21.2392 10.0593C21.2881 8.59878 22.3071 7.92016 23.3736 7.89095C24.5585 7.8585 25.5278 8.61083 25.5615 9.84231C25.5898 10.8768 24.9778 11.6231 24.1621 12.1483C22.8808 12.9918 22.1421 13.8008 22.1832 16.3828ZM21.9487 19.3667C21.9599 20.1354 22.6187 20.7385 23.3892 20.7273C24.1492 20.6966 24.7642 20.0586 24.753 19.2899C24.7221 18.5217 24.0729 17.9085 23.3125 17.9293C22.5423 17.9504 21.9178 18.5985 21.9487 19.3667Z" fill="#FDCF00"/>
</svg>
