<svg width="1160" height="1617" viewBox="0 0 1160 1617" fill="none" xmlns="http://www.w3.org/2000/svg">
<path d="M618.5 1010C853.5 768 847.167 405.667 824 192H971.5C999.1 422.4 877.5 909 762.5 1091.5L618.5 1010Z" fill="#DD9201"/>
<path d="M179.183 215.019C190.203 18.6216 491.569 -8.81143 640.874 2.02176L674.646 166.52C113.418 39.5212 431.839 389.522 479.5 418.5C542 456.5 601.5 469 892 675C1307.5 1093 994.746 1453.5 825 1616.5L610.571 1548C730.104 1531.17 996 1380.95 996 1151C996 969 937.5 853.5 848.391 762.511C668.56 578.888 168.163 411.416 179.183 215.019Z" fill="#FDCF00"/>
</svg>
