<svg width="366" height="16" viewBox="0 0 366 16" fill="none" xmlns="http://www.w3.org/2000/svg">
<path d="M1 1.48306L3.56369 4.89712C7.13232 9.64945 14.2626 9.64945 17.8312 4.89712C21.3998 0.144786 28.5301 0.144787 32.0987 4.89712C35.6674 9.64945 42.7976 9.64945 46.3662 4.89712C49.9349 0.144787 57.0651 0.144789 60.6338 4.89712C64.2024 9.64945 71.3326 9.64946 74.9013 4.89712C78.4699 0.14479 85.6002 0.144794 89.1688 4.89713L89.3252 5.10539C92.8362 9.78104 99.8346 9.83112 103.412 5.2062L104.327 4.02295C107.597 -0.20432 114.056 0.0428498 116.994 4.50766L117.314 4.99366C120.239 9.4406 126.799 9.38255 129.725 4.93561C132.647 0.493688 139.22 0.495894 142.06 4.99137C144.868 9.43843 151.312 9.55679 154.282 5.21588L154.566 4.80133C157.635 0.314763 164.326 0.453251 167.314 4.99478C170.288 9.51561 176.908 9.76422 180.115 5.40516L180.47 4.9222C181.73 3.20887 184.286 3.19628 185.564 4.89712V4.89712C189.132 9.64945 196.263 9.64945 199.831 4.89712C203.4 0.144786 210.53 0.144787 214.099 4.89712C217.667 9.64945 224.798 9.64945 228.366 4.89712C231.935 0.144787 239.065 0.144789 242.634 4.89712C246.202 9.64945 253.333 9.64946 256.901 4.89712C260.47 0.14479 267.6 0.144794 271.169 4.89713L271.325 5.10539C274.836 9.78104 281.835 9.83112 285.412 5.2062L286.327 4.02295C289.597 -0.20432 296.056 0.0428498 298.994 4.50766L299.314 4.99366C302.239 9.4406 308.799 9.38255 311.725 4.93561C314.647 0.493688 321.22 0.495894 324.06 4.99137C326.868 9.43843 333.312 9.55679 336.282 5.21588L336.566 4.80133C339.635 0.314763 346.326 0.453251 349.314 4.99478C352.288 9.51561 358.908 9.76422 362.115 5.40516L365 1.48306M1 7.48306L3.56369 10.8971C7.13232 15.6495 14.2626 15.6495 17.8312 10.8971C21.3998 6.14479 28.5301 6.14479 32.0987 10.8971C35.6674 15.6495 42.7976 15.6495 46.3662 10.8971C49.9349 6.14479 57.0651 6.14479 60.6338 10.8971C64.2024 15.6495 71.3326 15.6495 74.9013 10.8971C78.4699 6.14479 85.6002 6.14479 89.1688 10.8971L89.3252 11.1054C92.8362 15.781 99.8346 15.8311 103.412 11.2062L104.327 10.0229C107.597 5.79568 114.056 6.04285 116.994 10.5077L117.314 10.9937C120.239 15.4406 126.799 15.3826 129.725 10.9356C132.647 6.49369 139.22 6.49589 142.06 10.9914C144.868 15.4384 151.312 15.5568 154.282 11.2159L154.566 10.8013C157.635 6.31476 164.326 6.45325 167.314 10.9948C170.288 15.5156 176.908 15.7642 180.115 11.4052L180.47 10.9222C181.73 9.20886 184.286 9.19628 185.564 10.8971V10.8971C189.132 15.6495 196.263 15.6495 199.831 10.8971C203.4 6.14479 210.53 6.14479 214.099 10.8971C217.667 15.6495 224.798 15.6495 228.366 10.8971C231.935 6.14479 239.065 6.14479 242.634 10.8971C246.202 15.6495 253.333 15.6495 256.901 10.8971C260.47 6.14479 267.6 6.14479 271.169 10.8971L271.325 11.1054C274.836 15.781 281.835 15.8311 285.412 11.2062L286.327 10.0229C289.597 5.79568 296.056 6.04285 298.994 10.5077L299.314 10.9937C302.239 15.4406 308.799 15.3826 311.725 10.9356C314.647 6.49369 321.22 6.49589 324.06 10.9914C326.868 15.4384 333.312 15.5568 336.282 11.2159L336.566 10.8013C339.635 6.31476 346.326 6.45325 349.314 10.9948C352.288 15.5156 358.908 15.7642 362.115 11.4052L365 7.48306" stroke="#C0C0C0" stroke-width="2"/>
</svg>
